{
  "accessors": [
    {
      "name": "Object043_1_0_positions",
      "componentType": 5126,
      "count": 1896,
      "min": [
        -0.7645999789237976,
        0,
        -1.529099941253662
      ],
      "max": [
        0.7706999778747559,
        0.6503999829292297,
        1.676800012588501
      ],
      "type": "VEC3",
      "bufferView": 0,
      "byteOffset": 0
    },
    {
      "name": "Object043_1_0_normals",
      "componentType": 5126,
      "count": 1896,
      "min": [
        -1,
        -1,
        -1
      ],
      "max": [
        1,
        1,
        1
      ],
      "type": "VEC3",
      "bufferView": 1,
      "byteOffset": 0
    },
    {
      "name": "Object043_1_0_texcoords",
      "componentType": 5126,
      "count": 1896,
      "min": [
        0.7534999847412109,
        0.5234000086784363
      ],
      "max": [
        0.9988999962806702,
        0.7688000202178955
      ],
      "type": "VEC2",
      "bufferView": 2,
      "byteOffset": 0
    },
    {
      "name": "Object043_1_0_indices",
      "componentType": 5123,
      "count": 5088,
      "min": [
        0
      ],
      "max": [
        1895
      ],
      "type": "SCALAR",
      "bufferView": 3,
      "byteOffset": 0
    },
    {
      "name": "Object044_1_0_positions",
      "componentType": 5126,
      "count": 74,
      "min": [
        -0.6858000159263611,
        0.7109000086784363,
        -1.997499942779541
      ],
      "max": [
        0.6858000159263611,
        0.9341999888420105,
        -1.808899998664856
      ],
      "type": "VEC3",
      "bufferView": 0,
      "byteOffset": 22752
    },
    {
      "name": "Object044_1_0_normals",
      "componentType": 5126,
      "count": 74,
      "min": [
        -0.9436278939247131,
        -0.2138931155204773,
        -0.9704635739326477
      ],
      "max": [
        0.9436278939247131,
        0.9899476766586304,
        0.04889911413192749
      ],
      "type": "VEC3",
      "bufferView": 1,
      "byteOffset": 22752
    },
    {
      "name": "Object044_1_0_texcoords",
      "componentType": 5126,
      "count": 74,
      "min": [
        0.4339999854564667,
        0.5771999955177307
      ],
      "max": [
        0.5412999987602234,
        0.6638000011444092
      ],
      "type": "VEC2",
      "bufferView": 2,
      "byteOffset": 15168
    },
    {
      "name": "Object044_1_0_indices",
      "componentType": 5123,
      "count": 180,
      "min": [
        0
      ],
      "max": [
        73
      ],
      "type": "SCALAR",
      "bufferView": 3,
      "byteOffset": 10176
    },
    {
      "name": "Object045_1_0_positions",
      "componentType": 5126,
      "count": 262,
      "min": [
        -0.6895999908447266,
        0.8682000041007996,
        -1.5627000331878662
      ],
      "max": [
        0.6895999908447266,
        1.2283999919891357,
        0.9995999932289124
      ],
      "type": "VEC3",
      "bufferView": 0,
      "byteOffset": 23640
    },
    {
      "name": "Object045_1_0_normals",
      "componentType": 5126,
      "count": 262,
      "min": [
        -0.9795648455619812,
        0.20109277963638306,
        -0.4062022566795349
      ],
      "max": [
        0.9795648455619812,
        0.9774660468101501,
        0.5514188408851624
      ],
      "type": "VEC3",
      "bufferView": 1,
      "byteOffset": 23640
    },
    {
      "name": "Object045_1_0_texcoords",
      "componentType": 5126,
      "count": 262,
      "min": [
        0.322299987077713,
        0.2379000037908554
      ],
      "max": [
        0.9616000056266785,
        0.8194000124931335
      ],
      "type": "VEC2",
      "bufferView": 2,
      "byteOffset": 15760
    },
    {
      "name": "Object045_1_0_indices",
      "componentType": 5123,
      "count": 762,
      "min": [
        0
      ],
      "max": [
        261
      ],
      "type": "SCALAR",
      "bufferView": 3,
      "byteOffset": 10536
    },
    {
      "name": "Object045_1_1_positions",
      "componentType": 5126,
      "count": 496,
      "min": [
        -0.694599986076355,
        0.7961999773979187,
        -1.5925999879837036
      ],
      "max": [
        0.694599986076355,
        1.2353999614715576,
        1.1019999980926514
      ],
      "type": "VEC3",
      "bufferView": 0,
      "byteOffset": 26784
    },
    {
      "name": "Object045_1_1_normals",
      "componentType": 5126,
      "count": 496,
      "min": [
        -0.958533525466919,
        0.2847096025943756,
        -0.4139217734336853
      ],
      "max": [
        0.9585323333740234,
        0.9764973521232605,
        0.5563215613365173
      ],
      "type": "VEC3",
      "bufferView": 1,
      "byteOffset": 26784
    },
    {
      "name": "Object045_1_1_texcoords",
      "componentType": 5126,
      "count": 496,
      "min": [
        0.322299987077713,
        0.2379000037908554
      ],
      "max": [
        0.9711999893188477,
        0.8194000124931335
      ],
      "type": "VEC2",
      "bufferView": 2,
      "byteOffset": 17856
    },
    {
      "name": "Object045_1_1_indices",
      "componentType": 5123,
      "count": 780,
      "min": [
        0
      ],
      "max": [
        495
      ],
      "type": "SCALAR",
      "bufferView": 3,
      "byteOffset": 12060
    },
    {
      "name": "Red_Car001_1_0_positions",
      "componentType": 5126,
      "count": 608,
      "min": [
        -0.7771000266075134,
        0.16290000081062317,
        -2.078200101852417
      ],
      "max": [
        0.7771000266075134,
        1.0657999515533447,
        2.035599946975708
      ],
      "type": "VEC3",
      "bufferView": 0,
      "byteOffset": 32736
    },
    {
      "name": "Red_Car001_1_0_normals",
      "componentType": 5126,
      "count": 608,
      "min": [
        -1,
        -0.9999995827674866,
        -0.99998939037323
      ],
      "max": [
        1,
        0.8910653591156006,
        0.999995231628418
      ],
      "type": "VEC3",
      "bufferView": 1,
      "byteOffset": 32736
    },
    {
      "name": "Red_Car001_1_0_texcoords",
      "componentType": 5126,
      "count": 608,
      "min": [
        -1.857800006866455,
        -172.6374053955078
      ],
      "max": [
        39.64799880981445,
        47.0890007019043
      ],
      "type": "VEC2",
      "bufferView": 2,
      "byteOffset": 21824
    },
    {
      "name": "Red_Car001_1_0_indices",
      "componentType": 5123,
      "count": 1158,
      "min": [
        0
      ],
      "max": [
        607
      ],
      "type": "SCALAR",
      "bufferView": 3,
      "byteOffset": 13620
    },
    {
      "name": "Red_Car001_1_1_positions",
      "componentType": 5126,
      "count": 2140,
      "min": [
        -0.8723000288009644,
        0.16750000417232513,
        -2.1315999031066895
      ],
      "max": [
        0.8723000288009644,
        1.280400037765503,
        2.1321001052856445
      ],
      "type": "VEC3",
      "bufferView": 0,
      "byteOffset": 40032
    },
    {
      "name": "Red_Car001_1_1_normals",
      "componentType": 5126,
      "count": 2140,
      "min": [
        -0.9999849200248718,
        -0.9973613023757935,
        -0.9990964531898499
      ],
      "max": [
        0.9999848008155823,
        0.9999998807907104,
        0.9955152273178101
      ],
      "type": "VEC3",
      "bufferView": 1,
      "byteOffset": 40032
    },
    {
      "name": "Red_Car001_1_1_texcoords",
      "componentType": 5126,
      "count": 2140,
      "min": [
        0.019999999552965164,
        0.019200000911951065
      ],
      "max": [
        0.9370999932289124,
        0.9833999872207642
      ],
      "type": "VEC2",
      "bufferView": 2,
      "byteOffset": 26688
    },
    {
      "name": "Red_Car001_1_1_indices",
      "componentType": 5123,
      "count": 6972,
      "min": [
        0
      ],
      "max": [
        2139
      ],
      "type": "SCALAR",
      "bufferView": 3,
      "byteOffset": 15936
    },
    {
      "name": "Red_Car001_1_2_positions",
      "componentType": 5126,
      "count": 222,
      "min": [
        -0.7343999743461609,
        0.52920001745224,
        1.7526999711990356
      ],
      "max": [
        0.7343999743461609,
        0.6898999810218811,
        1.9544999599456787
      ],
      "type": "VEC3",
      "bufferView": 0,
      "byteOffset": 65712
    },
    {
      "name": "Red_Car001_1_2_normals",
      "componentType": 5126,
      "count": 222,
      "min": [
        -0.9974316358566284,
        -0.9902371764183044,
        -0.039599958807229996
      ],
      "max": [
        0.9974316358566284,
        0.9992039203643799,
        0.9991494417190552
      ],
      "type": "VEC3",
      "bufferView": 1,
      "byteOffset": 65712
    },
    {
      "name": "Red_Car001_1_2_texcoords",
      "componentType": 5126,
      "count": 222,
      "min": [
        0.6922000050544739,
        0.23109999299049377
      ],
      "max": [
        0.9344000220298767,
        0.35409998893737793
      ],
      "type": "VEC2",
      "bufferView": 2,
      "byteOffset": 43808
    },
    {
      "name": "Red_Car001_1_2_indices",
      "componentType": 5123,
      "count": 1215,
      "min": [
        0
      ],
      "max": [
        221
      ],
      "type": "SCALAR",
      "bufferView": 3,
      "byteOffset": 29880
    },
    {
      "name": "Red_Car001_1_3_positions",
      "componentType": 5126,
      "count": 24,
      "min": [
        -0.7680000066757202,
        0.7210000157356262,
        -1.2728999853134155
      ],
      "max": [
        0.7680000066757202,
        1.0670000314712524,
        -1.0464999675750732
      ],
      "type": "VEC3",
      "bufferView": 0,
      "byteOffset": 68376
    },
    {
      "name": "Red_Car001_1_3_normals",
      "componentType": 5126,
      "count": 24,
      "min": [
        -0.9783254265785217,
        0.20700538158416748,
        -0.17449833452701569
      ],
      "max": [
        0.9783254265785217,
        0.6972942352294922,
        -0.005300137680023909
      ],
      "type": "VEC3",
      "bufferView": 1,
      "byteOffset": 68376
    },
    {
      "name": "Red_Car001_1_3_texcoords",
      "componentType": 5126,
      "count": 24,
      "min": [
        0.7451000213623047,
        0.7713000178337097
      ],
      "max": [
        0.7993000149726868,
        0.8518999814987183
      ],
      "type": "VEC2",
      "bufferView": 2,
      "byteOffset": 45584
    },
    {
      "name": "Red_Car001_1_3_indices",
      "componentType": 5123,
      "count": 24,
      "min": [
        0
      ],
      "max": [
        23
      ],
      "type": "SCALAR",
      "bufferView": 3,
      "byteOffset": 32312
    },
    {
      "name": "Object042_1_0_positions",
      "componentType": 5126,
      "count": 306,
      "min": [
        -0.7623000144958496,
        0,
        -1.7204999923706055
      ],
      "max": [
        0.7343999743461609,
        0.6955000162124634,
        2.0796000957489014
      ],
      "type": "VEC3",
      "bufferView": 0,
      "byteOffset": 68664
    },
    {
      "name": "Object042_1_0_normals",
      "componentType": 5126,
      "count": 306,
      "min": [
        -1,
        -0.9999979138374329,
        -0.9145849943161011
      ],
      "max": [
        1,
        0.8322973251342773,
        0.9983510971069336
      ],
      "type": "VEC3",
      "bufferView": 1,
      "byteOffset": 68664
    },
    {
      "name": "Object042_1_0_texcoords",
      "componentType": 5126,
      "count": 306,
      "min": [
        -1.0686999559402466,
        -155.73890686035156
      ],
      "max": [
        17.099700927734375,
        20.962799072265625
      ],
      "type": "VEC2",
      "bufferView": 2,
      "byteOffset": 45776
    },
    {
      "name": "Object042_1_0_indices",
      "componentType": 5123,
      "count": 783,
      "min": [
        0
      ],
      "max": [
        305
      ],
      "type": "SCALAR",
      "bufferView": 3,
      "byteOffset": 32360
    },
    {
      "name": "Object042_1_1_positions",
      "componentType": 5126,
      "count": 20,
      "min": [
        -0.8723000288009644,
        0.8866000175476074,
        0.48159998655319214
      ],
      "max": [
        0.8723000288009644,
        1.0062999725341797,
        0.515500009059906
      ],
      "type": "VEC3",
      "bufferView": 0,
      "byteOffset": 72336
    },
    {
      "name": "Object042_1_1_normals",
      "componentType": 5126,
      "count": 20,
      "min": [
        -0.19319230318069458,
        0,
        -0.9811798334121704
      ],
      "max": [
        0.19319230318069458,
        0,
        -0.9811609387397766
      ],
      "type": "VEC3",
      "bufferView": 1,
      "byteOffset": 72336
    },
    {
      "name": "Object042_1_1_texcoords",
      "componentType": 5126,
      "count": 20,
      "min": [
        0.8565999865531921,
        0.5256999731063843
      ],
      "max": [
        0.8906000256538391,
        0.544700026512146
      ],
      "type": "VEC2",
      "bufferView": 2,
      "byteOffset": 48224
    },
    {
      "name": "Object042_1_1_indices",
      "componentType": 5123,
      "count": 48,
      "min": [
        0
      ],
      "max": [
        19
      ],
      "type": "SCALAR",
      "bufferView": 3,
      "byteOffset": 33928
    }
  ],
  "asset": {
    "generator": "obj2gltf",
    "version": "2.0"
  },
  "buffers": [
    {
      "name": "A_Car_005",
      "byteLength": 284284,
      "uri": "data:application/octet-stream;base64,"
    }
  ],
  "bufferViews": [
    {
      "name": "bufferView_0",
      "buffer": 0,
      "byteLength": 72576,
      "byteOffset": 0,
      "byteStride": 12,
      "target": 34962
    },
    {
      "name": "bufferView_1",
      "buffer": 0,
      "byteLength": 72576,
      "byteOffset": 72576,
      "byteStride": 12,
      "target": 34962
    },
    {
      "name": "bufferView_2",
      "buffer": 0,
      "byteLength": 48384,
      "byteOffset": 145152,
      "byteStride": 8,
      "target": 34962
    },
    {
      "name": "bufferView_3",
      "buffer": 0,
      "byteLength": 34024,
      "byteOffset": 193536,
      "target": 34963
    },
    {
      "buffer": 0,
      "byteOffset": 227560,
      "byteLength": 40463
    },
    {
      "buffer": 0,
      "byteOffset": 268023,
      "byteLength": 16259
    }
  ],
  "images": [
    {
      "name": "Red_Car",
      "mimeType": "image/jpeg",
      "bufferView": 4
    },
    {
      "name": "Red_0829",
      "mimeType": "image/jpeg",
      "bufferView": 5
    }
  ],
  "materials": [
    {
      "name": "Material__4547",
      "pbrMetallicRoughness": {
        "baseColorTexture": {
          "index": 0
        },
        "baseColorFactor": [
          1,
          1,
          1,
          1
        ],
        "metallicFactor": 0,
        "roughnessFactor": 0.99
      },
      "emissiveFactor": [
        0,
        0,
        0
      ],
      "alphaMode": "OPAQUE",
      "doubleSided": false
    },
    {
      "name": "Car_Red",
      "pbrMetallicRoughness": {
        "baseColorTexture": {
          "index": 1
        },
        "baseColorFactor": [
          1,
          1,
          1,
          1
        ],
        "metallicFactor": 0,
        "roughnessFactor": 0.97
      },
      "emissiveFactor": [
        0,
        0,
        0
      ],
      "alphaMode": "OPAQUE",
      "doubleSided": false
    },
    {
      "name": "Material__467",
      "pbrMetallicRoughness": {
        "baseColorFactor": [
          0.1961,
          0.1961,
          0.1961,
          1
        ],
        "metallicFactor": 0,
        "roughnessFactor": 0.97
      },
      "emissiveFactor": [
        0,
        0,
        0
      ],
      "alphaMode": "OPAQUE",
      "doubleSided": false
    },
    {
      "name": "Material__466",
      "pbrMetallicRoughness": {
        "baseColorFactor": [
          0.1529,
          0.1529,
          0.1529,
          1
        ],
        "metallicFactor": 0,
        "roughnessFactor": 0.99
      },
      "emissiveFactor": [
        0,
        0,
        0
      ],
      "alphaMode": "OPAQUE",
      "doubleSided": false
    },
    {
      "name": "Material__4561",
      "pbrMetallicRoughness": {
        "baseColorFactor": [
          0.7843,
          0.7843,
          0.7843,
          1
        ],
        "metallicFactor": 0,
        "roughnessFactor": 0.99
      },
      "emissiveFactor": [
        0.3922,
        0.3922,
        0.3922
      ],
      "alphaMode": "OPAQUE",
      "doubleSided": false
    }
  ],
  "meshes": [
    {
      "name": "Object043_1",
      "primitives": [
        {
          "attributes": {
            "POSITION": 0,
            "NORMAL": 1,
            "TEXCOORD_0": 2
          },
          "indices": 3,
          "material": 0,
          "mode": 4
        }
      ]
    },
    {
      "name": "Object044_1",
      "primitives": [
        {
          "attributes": {
            "POSITION": 4,
            "NORMAL": 5,
            "TEXCOORD_0": 6
          },
          "indices": 7,
          "material": 1,
          "mode": 4
        }
      ]
    },
    {
      "name": "Object045_1",
      "primitives": [
        {
          "attributes": {
            "POSITION": 8,
            "NORMAL": 9,
            "TEXCOORD_0": 10
          },
          "indices": 11,
          "material": 2,
          "mode": 4
        },
        {
          "attributes": {
            "POSITION": 12,
            "NORMAL": 13,
            "TEXCOORD_0": 14
          },
          "indices": 15,
          "material": 3,
          "mode": 4
        }
      ]
    },
    {
      "name": "Red_Car001_1",
      "primitives": [
        {
          "attributes": {
            "POSITION": 16,
            "NORMAL": 17,
            "TEXCOORD_0": 18
          },
          "indices": 19,
          "material": 3,
          "mode": 4
        },
        {
          "attributes": {
            "POSITION": 20,
            "NORMAL": 21,
            "TEXCOORD_0": 22
          },
          "indices": 23,
          "material": 1,
          "mode": 4
        },
        {
          "attributes": {
            "POSITION": 24,
            "NORMAL": 25,
            "TEXCOORD_0": 26
          },
          "indices": 27,
          "material": 0,
          "mode": 4
        },
        {
          "attributes": {
            "POSITION": 28,
            "NORMAL": 29,
            "TEXCOORD_0": 30
          },
          "indices": 31,
          "material": 2,
          "mode": 4
        }
      ]
    },
    {
      "name": "Object042_1",
      "primitives": [
        {
          "attributes": {
            "POSITION": 32,
            "NORMAL": 33,
            "TEXCOORD_0": 34
          },
          "indices": 35,
          "material": 0,
          "mode": 4
        },
        {
          "attributes": {
            "POSITION": 36,
            "NORMAL": 37,
            "TEXCOORD_0": 38
          },
          "indices": 39,
          "material": 4,
          "mode": 4
        }
      ]
    }
  ],
  "nodes": [
    {
      "name": "Object043",
      "mesh": 0
    },
    {
      "name": "Object044",
      "mesh": 1
    },
    {
      "name": "Object045",
      "mesh": 2
    },
    {
      "name": "Red_Car001",
      "mesh": 3
    },
    {
      "name": "Object042",
      "mesh": 4
    }
  ],
  "samplers": [
    {
      "magFilter": 9729,
      "minFilter": 9986,
      "wrapS": 10497,
      "wrapT": 10497
    }
  ],
  "scene": 0,
  "scenes": [
    {
      "nodes": [
        0,
        1,
        2,
        3,
        4
      ]
    }
  ],
  "textures": [
    {
      "name": "Red_Car",
      "sampler": 0,
      "source": 0
    },
    {
      "name": "Red_0829",
      "sampler": 0,
      "source": 1
    }
  ]
}
